<?xml version="1.0" encoding="UTF-8"?>
<svg width="359px" height="359px" viewBox="0 0 359 359" version="1.1" xmlns="http://www.w3.org/2000/svg" xmlns:xlink="http://www.w3.org/1999/xlink">
    <!-- Generator: Sketch 49.3 (51167) - http://www.bohemiancoding.com/sketch -->
    <title>Artboard 5</title>
    <desc>Created with Sketch.</desc>
    <defs>
        <circle id="path-1" cx="179.5" cy="179.5" r="179.5"></circle>
        <linearGradient x1="0%" y1="0.577884856%" x2="102%" y2="100.411353%" id="linearGradient-3">
            <stop stop-color="#00EAF8" offset="0%"></stop>
            <stop stop-color="#4F70F1" offset="72.7798151%"></stop>
            <stop stop-color="#6D42EF" offset="100%"></stop>
        </linearGradient>
        <linearGradient x1="82.3597171%" y1="93.8763608%" x2="95.8138021%" y2="-46.234022%" id="linearGradient-4">
            <stop stop-color="#FFFFFF" offset="0%"></stop>
            <stop stop-color="#FFFFFF" offset="0%"></stop>
            <stop stop-color="#CED3EC" offset="100%"></stop>
        </linearGradient>
    </defs>
    <g id="Artboard-5" stroke="none" stroke-width="1" fill="none" fill-rule="evenodd">
        <g id="Rectangle-2">
            <mask id="mask-2" fill="white">
                <use xlink:href="#path-1"></use>
            </mask>
            <use id="Mask" fill="#D8D8D8" xlink:href="#path-1"></use>
            <rect fill="url(#linearGradient-3)" mask="url(#mask-2)" x="0" y="0" width="361" height="361"></rect>
        </g>
        <path d="M122.252572,116 C124.11122,116 125.589667,116.680628 126.687959,118.041905 C127.786251,119.403181 128.166424,121.019673 127.828488,122.891429 L123.519825,142.8 C123.181889,144.671755 122.168096,146.288247 120.478416,147.649524 C118.788736,149.0108 117.014599,149.691429 115.155951,149.691429 L93.3591875,149.691429 C91.5005395,149.691429 90.064333,149.0108 89.050525,147.649524 C88.0367169,146.288247 87.698786,144.671755 88.036722,142.8 L92.3453845,122.891429 C92.6833206,121.019673 93.654872,119.403181 95.260068,118.041905 C96.8652641,116.680628 98.5971601,116 100.455808,116 L122.252572,116 Z M111.351013,169.596536 C113.210252,169.596536 114.68917,170.277164 115.787811,171.638441 C116.886452,172.999718 117.266746,174.616209 116.928702,176.487965 L102.621154,243.108571 C102.28311,244.980327 101.268995,246.596819 99.5787776,247.958095 C97.8885602,249.319372 96.1138587,250 94.2546196,250 L72.4509251,250 C70.591686,250 69.1550228,249.319372 68.1408924,247.958095 C67.126762,246.596819 66.7887236,244.980327 67.1267671,243.108571 L81.4343156,176.487965 C81.7723591,174.616209 82.7442194,172.999718 84.3499259,171.638441 C85.9556324,170.277164 87.6880791,169.596536 89.5473182,169.596536 L111.351013,169.596536 Z M168.120165,169.596536 C169.979404,169.596536 171.458322,170.277164 172.556963,171.638441 C173.655604,172.999718 174.035897,174.616209 173.697854,176.487965 L159.390306,243.108571 C159.052262,244.980327 158.038147,246.596819 156.34793,247.958095 C154.657712,249.319372 152.883011,250 151.023772,250 L129.220077,250 C127.360838,250 125.924175,249.319372 124.910044,247.958095 C123.895914,246.596819 123.557876,244.980327 123.895919,243.108571 L138.203468,176.487965 C138.541511,174.616209 139.513371,172.999718 141.119078,171.638441 C142.724784,170.277164 144.457231,169.596536 146.31647,169.596536 L168.120165,169.596536 Z M292.303,116 C294.16224,116 295.641157,116.680628 296.739799,118.041905 C297.83844,119.403181 298.218733,121.019673 297.88069,122.891429 L283.573141,189.512035 C283.235098,191.383791 282.220983,193.000282 280.530765,194.361559 C278.840548,195.722836 277.065846,196.403464 275.206607,196.403464 L253.402913,196.403464 C251.543674,196.403464 250.107011,195.722836 249.09288,194.361559 C248.07875,193.000282 247.740711,191.383791 248.078755,189.512035 L262.386303,122.891429 C262.724347,121.019673 263.696207,119.403181 265.301914,118.041905 C266.90762,116.680628 268.640067,116 270.499306,116 L292.303,116 Z M215.467185,243.042308 C215.125956,244.932061 214.144937,246.564096 212.524099,247.938462 C210.903262,249.312827 209.154489,250 207.27773,250 L186.803517,250 C184.926757,250 183.433903,249.312827 182.324909,247.938462 C181.215914,246.564096 180.832037,244.932061 181.173266,243.042308 L206.509393,122.957692 C206.850622,121.067939 207.874294,119.435904 209.580439,118.061538 C211.286584,116.687173 213.078009,116 214.954769,116 L235.428982,116 C237.305741,116 238.755943,116.687173 239.77963,118.061538 C240.803317,119.435904 241.144541,121.067939 240.803312,122.957692 L215.467185,243.042308 Z" id="i" fill="url(#linearGradient-4)"></path>
    </g>
</svg>