<?xml version="1.0" encoding="UTF-8"?>
<svg width="375px" height="219px" viewBox="0 0 375 219" version="1.1" xmlns="http://www.w3.org/2000/svg" xmlns:xlink="http://www.w3.org/1999/xlink">
    <!-- Generator: Sketch 49.3 (51167) - http://www.bohemiancoding.com/sketch -->
    <title>Group Copy</title>
    <desc>Created with Sketch.</desc>
    <defs>
        <linearGradient x1="82.3597171%" y1="93.8763608%" x2="95.8138021%" y2="-46.234022%" id="linearGradient-1">
            <stop stop-color="#FFFFFF" offset="0%"></stop>
            <stop stop-color="#FFFFFF" offset="0%"></stop>
            <stop stop-color="#CED3EC" offset="100%"></stop>
        </linearGradient>
    </defs>
    <g id="Identify" stroke="none" stroke-width="1" fill="none" fill-rule="evenodd">
        <g id="Group-Copy" fill="url(#linearGradient-1)">
            <path d="M89.695733,0 C92.7130188,0 95.1130965,1.11236983 96.8960381,3.33714286 C98.6789797,5.56191589 99.2961425,8.20379423 98.7475451,11.2628571 L91.7529631,43.8 C91.2043656,46.8590629 89.5585981,49.5009413 86.815611,51.7257143 C84.072624,53.9504873 81.1925308,55.0628571 78.175245,55.0628571 L42.7908888,55.0628571 C39.773603,55.0628571 37.442099,53.9504873 35.7963068,51.7257143 C34.1505145,49.5009413 33.6019253,46.8590629 34.1505228,43.8 L41.1451048,11.2628571 C41.6937022,8.20379423 43.2708961,5.56191589 45.8767338,3.33714286 C48.4825715,1.11236983 51.2940911,0 54.3113769,0 L89.695733,0 Z M71.9983973,87.594339 C75.0166426,87.594339 77.4174834,88.7067089 79.200992,90.9314819 C80.9845005,93.1562549 81.6018596,95.7981333 81.0530878,98.8571962 L57.826548,207.737143 C57.2777761,210.796206 55.6314852,213.438084 52.8876259,215.662857 C50.1437666,217.88763 47.2627576,219 44.2445124,219 L8.84890432,219 C5.83065909,219 3.49841367,217.88763 1.85209808,215.662857 C0.205782502,213.438084 -0.342981127,210.796206 0.205790734,207.737143 L23.4323305,98.8571962 C23.9811024,95.7981333 25.5587978,93.1562549 28.1654641,90.9314819 C30.7721305,88.7067089 33.5845441,87.594339 36.6027893,87.594339 L71.9983973,87.594339 Z M164.156112,87.594339 C167.174357,87.594339 169.575198,88.7067089 171.358706,90.9314819 C173.142215,93.1562549 173.759574,95.7981333 173.210802,98.8571962 L149.984262,207.737143 C149.43549,210.796206 147.789199,213.438084 145.04534,215.662857 C142.301481,217.88763 139.420472,219 136.402227,219 L101.006619,219 C97.9883733,219 95.6561279,217.88763 94.0098123,215.662857 C92.3634967,213.438084 91.8147331,210.796206 92.363505,207.737143 L115.590045,98.8571962 C116.138817,95.7981333 117.716512,93.1562549 120.323178,90.9314819 C122.929845,88.7067089 125.742258,87.594339 128.760504,87.594339 L164.156112,87.594339 Z M365.751624,0 C368.769869,0 371.17071,1.11236983 372.954219,3.33714286 C374.737727,5.56191589 375.355086,8.20379423 374.806315,11.2628571 L351.579775,120.142804 C351.031003,123.201867 349.384712,125.843745 346.640853,128.068518 C343.896993,130.293291 341.015984,131.405661 337.997739,131.405661 L302.602131,131.405661 C299.583886,131.405661 297.25164,130.293291 295.605325,128.068518 C293.959009,125.843745 293.410246,123.201867 293.959017,120.142804 L317.185557,11.2628571 C317.734329,8.20379423 319.312025,5.56191589 321.918691,3.33714286 C324.525357,1.11236983 327.337771,0 330.356016,0 L365.751624,0 Z M241.018157,207.628846 C240.464214,210.717323 238.871651,213.384604 236.240421,215.630769 C233.609191,217.876934 230.770275,219 227.723587,219 L194.486229,219 C191.439541,219 189.016076,217.876934 187.215761,215.630769 C185.415445,213.384604 184.792268,210.717323 185.346212,207.628846 L226.476288,11.3711538 C227.030231,8.28267687 228.692035,5.61539585 231.461751,3.36923077 C234.231467,1.12306569 237.139625,0 240.186313,0 L273.423671,0 C276.470359,0 278.824582,1.12306569 280.486412,3.36923077 C282.148241,5.61539585 282.702176,8.28267687 282.148233,11.3711538 L241.018157,207.628846 Z" id="i"></path>
        </g>
    </g>
</svg>